<svg xmlns="http://www.w3.org/2000/svg" width="284" height="82" viewBox="7 110 284 82" role="img" aria-labelledby="title"><title id="title">Corticon</title>
<path fill="#ba6734" fill-rule="evenodd" d="M32.80 188.60C22.63 185.86 14.53 177.48 11.44 166.50C8.13 154.76 9.86 139.21 15.55 129.51C19.03 123.57 24.77 118.44 31.24 115.48C35.73 113.43 38.56 112.86 44.24 112.85C48.23 112.84 52.74 113.31 54.25 113.89C56.81 114.88 57.00 115.35 57.00 120.73L57.00 126.50 47.75 126.50C39.76 126.50 37.92 126.83 34.21 128.96C28.26 132.36 24.36 138.58 23.50 146.03C23.12 149.31 23.12 154.72 23.50 158.04C24.01 162.39 25.09 165.38 27.35 168.71C29.08 171.25 32.08 174.17 34.00 175.19C36.91 176.73 39.36 177.00 48.50 176.77C57.67 176.54 59.44 176.25 59.16 175.00C57.42 167.41 58.34 161.76 62.27 155.92C67.15 148.69 76.47 145.20 85.00 147.41C87.59 148.08 90.97 149.62 92.49 150.82C94.02 152.02 95.66 153.00 96.13 153.00C96.61 153.00 97.00 151.61 97.00 149.92L97.00 146.83 108.92 147.17C119.41 147.46 121.20 147.77 123.88 149.75C125.55 150.99 127.16 152.00 127.46 152.00C127.76 152.00 128.00 143.65 128.00 133.45L128.00 114.91 134.75 115.20L141.50 115.50 142.00 122.00C142.50 128.48 142.51 128.50 145.75 128.81L149.00 129.13 149.00 135.06L149.00 141.00 145.50 141.00L142.00 141.00 142.00 156.93L142.00 172.85 144.69 174.97C146.84 176.66 148.50 177.03 152.94 176.79L158.50 176.50 158.78 162.25L159.05 148.00 164.03 148.00L169.00 148.00 169.00 159.57C169.00 170.62 169.79 174.49 172.40 176.23C175.08 178.02 175.65 176.80 175.62 169.25C175.60 163.21 176.08 160.59 177.77 157.34C181.71 149.80 188.09 146.60 198.00 147.18L203.50 147.50 203.79 154.75L204.09 162.00 198.15 162.00C190.79 162.00 187.67 164.09 187.67 169.00C187.67 171.37 188.44 172.99 190.39 174.66C192.93 176.84 193.95 177.00 205.61 177.00L218.10 177.00 217.44 171.15C216.89 166.35 217.16 164.42 218.94 160.41C222.46 152.44 226.60 149.00 234.89 147.13C240.37 145.90 246.45 147.33 251.75 151.10L256.00 154.12 256.00 150.56L256.00 147.00 267.10 147.00C280.83 147.00 284.38 148.35 287.16 154.63C288.80 158.33 289.02 160.98 288.78 174.20L288.50 189.50 284.00 189.50L279.50 189.50 279.00 175.00L278.50 160.50 272.78 160.20L267.05 159.90 266.78 174.70L266.50 189.50 261.50 189.50C256.59 189.50 256.49 189.44 256.19 186.25C256.01 184.46 255.65 183.00 255.37 183.00C255.09 183.00 253.43 184.08 251.68 185.40C249.93 186.72 246.70 188.30 244.50 188.90C238.93 190.42 147.51 190.41 141.45 188.88C138.42 188.12 135.92 186.54 133.51 183.88C131.58 181.75 129.80 180.00 129.56 180.00C129.31 180.00 128.97 182.14 128.80 184.75L128.50 189.50 124.00 189.50L119.50 189.50 119.00 175.00L118.50 160.50 112.78 160.20L107.05 159.90 106.78 174.70L106.50 189.50 101.75 189.80C97.11 190.10 97.00 190.04 97.00 187.22C97.00 185.63 96.72 184.05 96.38 183.71C96.03 183.37 94.35 184.15 92.63 185.45C90.91 186.74 87.70 188.30 85.50 188.90C79.81 190.45 38.82 190.22 32.80 188.60ZM242.19 178.97C247.05 177.61 251.00 172.88 251.00 168.39C251.00 163.79 248.80 160.66 244.04 158.52C238.68 156.10 233.65 157.15 229.19 161.61C226.09 164.71 225.80 165.47 226.30 169.17C226.92 173.83 229.54 176.95 234.28 178.67C238.40 180.18 237.90 180.16 242.19 178.97ZM88.60 175.60C91.03 173.17 92.00 171.30 92.00 169.05C92.00 167.32 91.36 164.66 90.57 163.13C88.63 159.39 82.19 156.55 77.59 157.42C72.84 158.31 68.21 162.38 67.47 166.32C66.11 173.57 71.62 178.99 80.35 179.00C84.53 179.00 85.67 178.53 88.60 175.60Z"/>
</svg>
